<svg xmlns="http://www.w3.org/2000/svg" width="421" height="435" viewBox="0 0 421 435" version="1.1"><path d="M 189.060 15.189 C 171.082 17.438, 141.837 26.940, 126.338 35.569 L 120.175 39 76.838 39.024 C 50.668 39.039, 31.717 39.458, 29 40.083 C 26.525 40.651, 23.207 42.328, 21.627 43.808 C 16.528 48.585, 16 51.217, 16 71.854 L 16 90.772 18.778 96.136 C 20.929 100.288, 23.018 102.484, 28.028 105.856 L 34.500 110.212 35 234.878 L 35.500 359.543 38.699 366.022 C 50.644 390.208, 100.542 413.567, 158.405 422.059 C 223.484 431.611, 297.373 422.279, 345.119 398.478 C 355.057 393.524, 371.198 382.644, 376.550 377.292 C 382.040 371.802, 386.646 362.404, 387.965 354 C 388.616 349.852, 388.988 304.417, 388.992 228.435 L 389 109.370 392.279 107.807 C 397.678 105.232, 401.694 101.255, 404.422 95.780 L 407 90.607 407 71.461 L 407 52.315 404.710 47.985 C 403.217 45.160, 401.044 42.933, 398.460 41.577 L 394.500 39.500 348 38.992 L 301.500 38.484 294.934 34.773 C 279.805 26.221, 252.047 17.475, 232.500 15.099 C 221.947 13.817, 199.660 13.863, 189.060 15.189 M 186.658 19.507 C 167.841 22.565, 148.228 28.977, 131.154 37.653 L 120.631 43 76.065 43.022 L 31.500 43.044 27.212 44.990 C 20.684 47.953, 19.996 50.512, 20.022 71.718 L 20.044 89.500 21.880 93.541 C 23.903 97.995, 28.209 102.046, 34.134 105.068 L 38 107.041 38.020 226.270 C 38.032 300.067, 38.419 348.126, 39.036 352.392 C 41.097 366.653, 46.251 373.743, 62.348 384.463 C 85.773 400.063, 115.174 410.815, 151.103 416.920 C 186.203 422.885, 228.309 423.440, 262.960 418.394 C 290.591 414.370, 319.536 406.196, 338.894 396.952 C 351.556 390.904, 370.401 378.585, 374.999 373.348 C 379.098 368.680, 382.671 361.009, 383.992 354.040 C 384.634 350.655, 385 304.876, 385 227.884 L 385 107.041 388.866 105.068 C 394.556 102.166, 398.833 98.248, 401.044 93.914 L 403 90.080 403 71.188 L 403 52.296 400.715 48.898 C 399.410 46.956, 396.945 44.988, 394.965 44.306 C 392.494 43.455, 378.771 43.097, 347.129 43.056 L 302.758 43 290.629 37.037 C 276.863 30.270, 259.184 24.112, 244.500 20.970 C 231.324 18.150, 199.897 17.356, 186.658 19.507 M 196.500 31.633 C 176.997 33.766, 144.809 42.765, 138.902 47.736 C 135.243 50.815, 135.100 54.776, 138.500 58.818 L 141 61.789 140.997 76.144 L 140.994 90.500 136.247 93 C 130.516 96.018, 130.139 97.647, 132.492 109.259 C 134.306 118.212, 136.002 122.188, 139.689 126.133 L 142.149 128.765 139.151 134.133 C 132.985 145.168, 126.100 169.408, 124.523 185.638 C 123.376 197.433, 126.634 209.540, 132.403 214.924 L 135 217.349 134.996 257.924 L 134.992 298.500 132.496 303.419 C 129.573 309.181, 129.438 311.013, 131.602 315.575 C 134.404 321.479, 148.192 326.266, 176.597 331.197 L 189.500 333.437 212 333.437 L 234.500 333.437 247.500 331.189 C 275.308 326.381, 289.634 321.399, 292.398 315.575 C 294.562 311.013, 294.427 309.181, 291.504 303.419 L 289.008 298.500 289.004 257.491 L 289 216.481 291.083 215.180 C 292.229 214.465, 294.347 211.319, 295.791 208.190 C 299.261 200.668, 299.948 187.411, 297.534 174.531 C 295.338 162.809, 287.721 139.720, 284.145 133.945 L 281.325 129.389 284.680 125.508 C 288.327 121.288, 291.330 112.888, 292.436 103.806 C 293.291 96.792, 292.296 94.736, 287.029 92.628 L 283 91.016 283 76.154 L 283 61.292 285.500 58.595 C 288.933 54.890, 288.783 50.836, 285.098 47.736 C 281.160 44.422, 257.152 36.583, 243 33.990 C 231.801 31.938, 205.775 30.619, 196.500 31.633 M 196.107 36.074 C 173.282 38.649, 140 48.660, 140 52.952 C 140 53.450, 140.604 54.461, 141.342 55.199 C 142.080 55.937, 143.197 57.500, 143.824 58.671 L 144.963 60.800 154.232 57.806 C 159.329 56.160, 167.100 54.020, 171.500 53.051 L 179.500 51.290 185.052 54.059 C 201.828 62.428, 220.044 62.660, 237.218 54.725 L 244.790 51.227 257.645 54.544 C 264.715 56.369, 272.413 58.547, 274.750 59.386 C 277.087 60.225, 279 60.516, 279 60.032 C 279 59.549, 280.191 57.738, 281.646 56.009 L 284.292 52.864 282.896 51.501 C 280.875 49.529, 267.820 44.556, 256.918 41.605 C 237.525 36.357, 213.204 34.145, 196.107 36.074 M 172 57.110 C 170.075 57.622, 163.213 59.685, 156.750 61.696 L 145 65.351 145 77.759 C 145 87.238, 145.295 90.070, 146.250 89.756 C 146.938 89.530, 147.725 87.372, 148 84.960 L 148.500 80.576 155.901 78.263 C 164.215 75.665, 186.359 71, 190.376 71 C 192.333 71, 193 70.492, 193 69 L 193 67 211 67 L 229 67 229 68.871 L 229 70.742 235.250 71.435 C 243.692 72.372, 258.819 75.675, 268.194 78.628 L 275.888 81.051 276.194 85.198 C 276.362 87.479, 277.063 89.530, 277.750 89.756 C 278.705 90.070, 279 87.235, 279 77.747 L 279 65.327 267.250 61.684 C 260.788 59.680, 253.087 57.533, 250.137 56.913 L 244.774 55.786 239.637 58.290 C 222.710 66.541, 203.923 66.952, 186.459 59.453 C 177.866 55.763, 177.372 55.683, 172 57.110 M 195 71.481 C 195 72.295, 193.988 73.162, 192.750 73.406 C 191.512 73.650, 185.203 74.793, 178.730 75.947 C 172.256 77.101, 163.368 79.180, 158.980 80.566 L 151 83.087 150.985 86.294 C 150.966 90.214, 150.171 91.521, 147.250 92.433 C 144.971 93.144, 144.543 94.982, 145.871 98.356 L 146.601 100.212 148.512 95.973 C 151.207 89.998, 158.036 83.516, 163.655 81.602 C 169.985 79.445, 179.471 79.572, 184.500 81.880 C 186.700 82.889, 190.300 85.409, 192.500 87.479 C 198.396 93.025, 204.245 95.377, 212 95.320 C 219.785 95.262, 224.579 93.351, 230.402 87.984 C 236.512 82.352, 242.193 80.046, 250 80.032 C 261.146 80.011, 271.279 86.705, 275.974 97.190 L 277.749 101.154 278.447 97.431 C 279.150 93.685, 278.185 92.051, 275.250 92.015 C 274.463 92.006, 274 90.532, 274 88.035 C 274 85.175, 273.475 83.789, 272.116 83.062 C 268.877 81.329, 251.006 77.001, 239.058 75.057 C 231.414 73.813, 227.228 72.664, 226.448 71.597 L 225.280 70 210.140 70 L 195 70 195 71.481 M 166.843 84.975 C 162.918 86.160, 158 89.267, 158 90.561 C 158 92.020, 160.668 94.338, 164.700 96.379 C 170.942 99.540, 179.682 97.762, 183.832 92.486 C 186.881 88.610, 186.568 87.444, 181.980 85.609 C 177.730 83.908, 171.269 83.638, 166.843 84.975 M 242.012 85.306 C 240.028 85.985, 238.372 87.293, 238.172 88.339 C 237.408 92.321, 245.627 98, 252.152 98 C 256.116 98, 263.689 94.450, 265.016 91.970 L 265.998 90.135 263.249 88.220 C 257.261 84.051, 248.996 82.916, 242.012 85.306 M 185.500 94.422 C 178.543 102.068, 169.354 102.795, 159.920 96.446 L 154.921 93.082 153.064 96.135 C 149.878 101.374, 148.745 107.095, 149.773 112.751 C 150.284 115.565, 150.347 120.035, 149.912 122.684 L 149.121 127.500 152.311 130.358 C 171.922 147.936, 207.361 154.450, 239.500 146.386 C 248.243 144.192, 262.967 136.765, 268.409 131.804 L 273.129 127.500 273.631 119.500 C 274.528 105.183, 274.388 103.699, 271.622 98.240 C 270.161 95.358, 268.696 93, 268.365 93 C 268.035 93, 266.248 94.331, 264.395 95.958 C 256.206 103.148, 244.316 102.059, 237.237 93.471 L 234.294 89.901 231.030 93.619 L 227.766 97.336 231.432 99.217 C 235.822 101.469, 243 108.426, 243 110.427 C 243 112.715, 238.294 115.781, 233.721 116.472 C 231.399 116.823, 227.025 118.323, 224 119.805 C 216.255 123.600, 207.499 123.580, 200.116 119.750 C 197.201 118.237, 193.897 117, 192.774 117 C 189.287 117, 183.109 114.778, 181.426 112.918 C 180.411 111.797, 180.067 110.365, 180.490 109.032 C 181.219 106.734, 189.795 99.517, 193.008 98.498 C 195.620 97.669, 195.529 97.040, 192.250 93.225 L 189.500 90.026 185.500 94.422 M 137.140 97.072 L 134.781 98.017 135.427 101.758 C 137.859 115.832, 140.793 123.144, 144.277 123.815 L 146 124.147 146 119.230 C 146 116.526, 145.167 111.880, 144.149 108.907 C 143.132 105.933, 141.986 101.813, 141.604 99.750 C 140.858 95.722, 140.719 95.639, 137.140 97.072 M 199.478 97.139 C 200.132 98.915, 199.083 100.279, 196 101.663 C 192.302 103.323, 185 108.861, 185 110.006 C 185 110.553, 187.070 111, 189.599 111 C 193.133 111, 195.550 111.834, 200.031 114.600 L 205.863 118.200 211.811 118.200 C 218.023 118.200, 220.934 117.178, 224.824 113.631 C 226.401 112.193, 228.974 111.346, 232.824 110.995 L 238.500 110.478 235.065 107.165 C 233.176 105.343, 229.913 102.976, 227.815 101.906 C 225.499 100.724, 224 99.242, 224 98.134 L 224 96.308 218.510 97.707 C 213.207 99.057, 206.148 98.563, 200.739 96.461 C 199.497 95.979, 199.125 96.179, 199.478 97.139 M 283 97.377 C 283 98.134, 281.650 103.140, 280 108.500 C 276.865 118.685, 276.284 123.440, 278.044 124.527 C 281.510 126.669, 286.076 116.753, 288.454 101.917 L 289.028 98.334 286.467 97.167 C 283.225 95.690, 283 95.704, 283 97.377 M 179.679 127.969 C 176.314 131.969, 176.289 135.001, 179.589 138.923 L 182.178 142 210.866 142 L 239.555 142 241.674 140.516 C 246.296 137.279, 246.416 130.146, 241.905 126.779 L 239.358 124.877 228.429 126.068 C 218.119 127.192, 196.455 126.835, 186.429 125.377 L 182.359 124.785 179.679 127.969 M 182.571 129.886 C 182.270 130.373, 183.143 130.985, 184.512 131.247 C 186.177 131.565, 187 131.272, 187 130.361 C 187 128.860, 183.441 128.478, 182.571 129.886 M 235.596 130.611 C 235.143 131.791, 235.404 132.059, 236.570 131.611 C 237.447 131.275, 238.577 131, 239.082 131 C 239.587 131, 240 130.550, 240 130 C 240 128.353, 236.263 128.872, 235.596 130.611 M 190.070 130.750 C 190.109 131.162, 190.467 132.330, 190.867 133.345 L 191.593 135.189 192.775 132.595 L 193.957 130 191.979 130 C 190.890 130, 190.032 130.338, 190.070 130.750 M 196.417 130.917 C 194.771 132.562, 197.837 133, 211 133 C 222.333 133, 226 132.694, 226 131.750 C 226 130.807, 222.417 130.500, 211.417 130.500 C 203.396 130.500, 196.646 130.688, 196.417 130.917 M 229 130.809 C 229 131.254, 229.609 132.450, 230.353 133.468 L 231.706 135.318 232.214 132.659 C 232.617 130.551, 232.337 130, 230.861 130 C 229.838 130, 229 130.364, 229 130.809 M 148.609 135.170 C 150.265 146.058, 154.059 153.171, 162.041 160.347 L 167.295 165.071 169.398 163.159 C 173.033 159.853, 179.272 156.373, 185.891 153.959 L 192.279 151.630 186.389 150.390 C 173.395 147.652, 161.598 142.193, 152.725 134.812 L 147.951 130.839 148.609 135.170 M 269.212 135.401 C 261.966 141.246, 250.466 146.740, 239.596 149.550 L 230.500 151.902 249.805 151.951 L 269.111 152 271.500 146.750 C 273.550 142.245, 276.002 130.866, 274.879 131.068 C 274.670 131.106, 272.120 133.056, 269.212 135.401 M 277.317 139.002 C 276.690 142.303, 275.237 146.946, 274.088 149.318 L 272 153.631 272 184.769 L 272 215.906 277.250 215.344 C 285.354 214.476, 289.049 212.262, 291.968 206.525 L 294.500 201.550 294.442 190.525 C 294.374 177.790, 293.332 172.229, 287.781 155 C 284.394 144.486, 279.659 133, 278.712 133 C 278.572 133, 277.944 135.701, 277.317 139.002 M 141.811 138.500 C 132.163 157.944, 126.593 187.800, 129.980 201.919 C 132.152 210.972, 136.146 214.065, 147.500 215.488 L 152.500 216.115 152.553 203.307 L 152.606 190.500 155.312 183.607 C 156.800 179.815, 159.551 174.581, 161.424 171.974 L 164.829 167.234 159.664 162.745 C 153.581 157.457, 148.562 149.483, 146.923 142.500 C 146.277 139.750, 145.421 136.600, 145.021 135.500 L 144.292 133.500 141.811 138.500 M 182 136 C 183.050 137.962, 189 138.982, 189 137.200 C 189 135.532, 186.494 134, 183.765 134 L 180.930 134 182 136 M 234.667 134.667 C 233.208 136.125, 234.127 138, 236.300 138 C 238.575 138, 241 136.349, 241 134.800 C 241 133.836, 235.611 133.722, 234.667 134.667 M 194.416 135.917 C 192.746 137.588, 196.140 138, 211.583 138 C 224.395 138, 229.063 137.688, 228.783 136.849 C 228.516 136.048, 223.302 135.669, 211.616 135.599 C 202.385 135.545, 194.646 135.688, 194.416 135.917 M 222.166 152.876 L 220.832 153.722 222.343 154.301 C 223.174 154.620, 224.392 154.233, 225.049 153.441 C 225.991 152.305, 225.954 152.003, 224.872 152.015 C 224.118 152.024, 222.900 152.411, 222.166 152.876 M 190.308 156.914 C 168.270 163.219, 154.504 183.845, 156.230 207.973 C 157.198 221.505, 164.378 232.392, 180.597 244.925 C 192.288 253.959, 194.233 255.814, 193.409 257.147 C 193.119 257.616, 184.584 258, 174.441 258 L 156 258 156 290 L 156 322 175.500 322 L 195 322 195 320.559 C 195 317.951, 196.770 317.937, 204.357 320.484 C 225.226 327.489, 248.664 319.758, 259.867 302.173 C 266.106 292.380, 269.160 276.924, 266.959 266.278 C 264.254 253.195, 257.358 244.079, 240.636 231.482 C 234.370 226.761, 230.141 222.887, 230.284 222 L 230.526 220.500 249.263 220.228 L 268 219.956 268 188.478 L 268 157 248 157 L 228 157 228 158.500 C 228 160.496, 227.297 160.421, 218.595 157.500 C 209.611 154.484, 199.531 154.275, 190.308 156.914 M 271.836 221.126 L 271.500 223.500 255.100 224 L 238.700 224.500 246.338 230.347 C 250.539 233.563, 256.119 238.530, 258.738 241.386 L 263.500 246.578 270.500 245.390 C 274.350 244.737, 279.075 243.792, 281 243.290 L 284.500 242.377 284.784 232.242 L 285.069 222.107 283.075 221.040 C 281.978 220.453, 279.076 219.698, 276.626 219.362 L 272.172 218.752 271.836 221.126 M 142 220.893 L 139.500 221.586 139.216 231.685 L 138.932 241.784 146.216 243.374 C 156.212 245.555, 170.746 248, 173.718 248 L 176.174 248 168.319 240.250 C 163.429 235.425, 159.223 230.141, 157.174 226.250 L 153.883 220 149.191 220.100 C 146.611 220.155, 143.375 220.511, 142 220.893 M 139 248.245 L 139 251.707 145.943 252.853 C 154.052 254.193, 184.373 254.412, 183.578 253.126 C 183.281 252.645, 178.642 251.709, 173.269 251.046 C 164.109 249.916, 147.944 247.063, 141.750 245.484 L 139 244.783 139 248.245 M 272.833 247.889 L 265.166 249.500 266.600 252.222 L 268.034 254.943 271.267 254.303 C 273.045 253.950, 276.750 253.167, 279.500 252.563 L 284.500 251.464 284.816 248.732 L 285.133 246 282.816 246.139 C 281.542 246.215, 277.050 247.002, 272.833 247.889 M 139.231 277.650 L 139.500 300.299 145.750 302.636 L 152 304.973 152 281.124 L 152 257.276 146.333 256.138 C 143.216 255.512, 140.283 255, 139.814 255 C 139.346 255, 139.083 265.192, 139.231 277.650 M 276 256.159 C 268.822 257.665, 269.109 257.292, 270.626 263.138 C 273.443 273.997, 271.283 289.878, 265.503 300.811 L 262.166 307.123 265.174 306.462 C 266.829 306.098, 271.854 304.568, 276.342 303.060 L 284.500 300.319 284.769 277.660 L 285.038 255 282.769 255.107 C 281.521 255.166, 278.475 255.639, 276 256.159 M 136.061 304.886 C 134.518 307.770, 134.762 313.620, 136.499 315.356 C 138.130 316.987, 148.145 321, 150.583 321 L 152.091 321 151.796 314.342 L 151.500 307.684 146.500 305.988 C 136.927 302.742, 137.193 302.770, 136.061 304.886 M 280 305.102 C 276.975 306.177, 270.900 308.026, 266.500 309.209 C 260.399 310.850, 257.512 312.253, 254.340 315.118 C 242.507 325.805, 221.501 330.331, 205.617 325.614 C 201.449 324.376, 199.422 324.178, 198.667 324.933 C 198.050 325.550, 192.724 326.053, 186.050 326.126 L 174.500 326.252 182 327.619 C 195.174 330.021, 219.802 330.485, 234.500 328.607 C 257.119 325.718, 279.623 320.397, 285.274 316.602 C 287.773 314.924, 288.569 313.608, 288.808 310.760 C 289.107 307.194, 287.666 302.925, 286.215 303.073 C 285.822 303.113, 283.025 304.026, 280 305.102" stroke="none" fill="#4c6473" fill-rule="evenodd"/><path d="M 38.488 61.378 C 37.269 63.239, 36.992 66.096, 37.215 74.519 L 37.500 85.282 44 89.219 C 47.575 91.385, 51.506 94.093, 52.735 95.239 L 54.971 97.321 55.235 226.411 L 55.500 355.500 57.297 358.792 C 62.743 368.765, 91.543 384.046, 120.556 392.355 C 148.573 400.379, 174.353 403.443, 213 403.342 L 241.500 403.267 256.500 401.227 C 296.482 395.789, 327.290 385.113, 352.480 367.967 C 360.549 362.474, 363.693 359.676, 365.774 356.136 L 368.500 351.500 368.769 224.580 C 368.960 134.111, 369.353 97.279, 370.137 96.334 C 370.742 95.605, 374.560 93.175, 378.622 90.933 C 382.683 88.691, 386.496 85.942, 387.094 84.825 C 387.740 83.618, 388.043 78.819, 387.840 72.999 L 387.500 63.205 385.595 61.103 L 383.690 59 339.368 59 L 295.046 59 293.488 61.378 C 292.267 63.242, 291.992 66.107, 292.215 74.628 L 292.500 85.500 297.500 88.709 C 300.250 90.474, 304.188 93.057, 306.250 94.449 L 310 96.981 309.985 209.240 C 309.974 297.242, 309.699 322.036, 308.716 323.979 C 305.157 331.013, 273.004 342.276, 244 346.649 C 229.957 348.766, 197.003 349.030, 183 347.138 C 155.450 343.415, 121.658 332.465, 116.163 325.480 L 114 322.730 114 210.039 L 114 97.349 116.250 95.267 C 117.487 94.122, 121.309 91.549, 124.742 89.549 C 132.041 85.298, 132.339 84.567, 131.851 72.134 C 131.574 65.092, 131.098 62.763, 129.595 61.104 L 127.690 59 83.868 59 L 40.046 59 38.488 61.378 M 197.580 162.173 C 184.224 163.973, 172.420 172.605, 166.753 184.714 L 163.657 191.330 163.228 201.415 L 162.798 211.500 164.970 217.247 C 168.145 225.650, 174.557 232.001, 198.751 250.705 C 210.527 259.810, 220.399 267.877, 220.689 268.632 C 221.566 270.918, 220.101 274.876, 217.950 276.027 C 215.100 277.552, 213.112 276.675, 205.331 270.464 L 198.500 265.011 180.750 265.006 L 163 265 163 290.030 L 163 315.060 175.750 314.780 L 188.500 314.500 189 311.011 C 189.688 306.214, 191.957 306.072, 198.949 310.388 C 204.990 314.116, 214.067 317, 219.763 317 C 231.464 317, 246.019 310.042, 252.643 301.282 C 259.704 291.945, 262.888 275.006, 259.666 263.923 C 256.661 253.585, 251.818 248.444, 227.159 229.408 C 214.697 219.788, 203.990 210.998, 203.366 209.874 C 201.868 207.176, 202.730 204.223, 205.557 202.371 L 207.848 200.870 210.759 202.375 C 212.360 203.204, 216.202 205.943, 219.296 208.464 L 224.922 213.046 242.711 212.773 L 260.500 212.500 260.500 188 L 260.500 163.500 248 163.500 L 235.500 163.500 235 167 C 234.309 171.839, 231.477 172.014, 224.261 167.662 C 215.219 162.210, 208.128 160.751, 197.580 162.173" stroke="none" fill="#8c1c1c" fill-rule="evenodd"/></svg>