<?xml version="1.0" standalone="no"?>
<!DOCTYPE svg PUBLIC "-//W3C//DTD SVG 20010904//EN"
 "http://www.w3.org/TR/2001/REC-SVG-20010904/DTD/svg10.dtd">
<svg version="1.0" xmlns="http://www.w3.org/2000/svg"
 width="870.000000pt" height="870.000000pt" viewBox="0 0 870.000000 870.000000"
 preserveAspectRatio="xMidYMid meet">
<metadata>
Created by potrace 1.14, written by Peter Selinger 2001-2017
</metadata>
<g transform="translate(0.000000,870.000000) scale(0.100000,-0.100000)"
fill="#000000" stroke="none">
<path d="M3965 8399 c-350 -35 -956 -228 -1299 -414 l-115 -62 -853 -6 c-469
-4 -888 -11 -930 -16 -95 -12 -159 -44 -220 -109 -76 -81 -87 -161 -88 -610
l0 -294 41 -79 c55 -106 102 -156 223 -240 l103 -70 7 -807 c3 -444 9 -1567
12 -2497 l7 -1690 43 -86 c111 -223 302 -402 629 -589 472 -272 1161 -486
1865 -580 526 -70 1187 -79 1730 -24 493 50 951 145 1370 284 366 121 598 231
875 416 281 187 359 263 445 439 93 187 90 166 100 925 5 366 9 1466 9 2445
l1 1780 77 40 c103 52 175 126 236 242 l47 90 0 383 0 382 -31 59 c-43 81 -83
123 -155 163 l-62 34 -931 11 -932 11 -117 65 c-294 162 -741 312 -1152 386
-112 20 -163 22 -485 25 -198 1 -400 -2 -450 -7z m575 -69 c345 -16 470 -35
729 -109 255 -73 465 -155 760 -297 l174 -84 741 0 c408 0 819 -5 915 -10 166
-8 176 -10 220 -37 25 -16 63 -53 83 -83 l38 -53 0 -382 0 -382 -37 -68 c-49
-86 -136 -168 -241 -224 l-82 -44 -1 -2166 c0 -1191 -4 -2305 -8 -2476 l-8
-310 -32 -94 c-79 -232 -177 -336 -529 -558 -297 -188 -571 -308 -977 -428
-389 -115 -791 -193 -1185 -229 -491 -46 -914 -46 -1429 0 -864 76 -1640 309
-2202 661 -355 223 -478 364 -535 612 -26 113 -33 694 -33 2897 l-1 2091 -82
44 c-116 62 -200 143 -244 236 l-36 74 4 357 c6 461 9 471 158 541 l65 31 893
0 892 0 188 94 c485 243 973 383 1382 399 167 7 224 6 420 -3z"/>
<path d="M4005 8058 c-451 -69 -999 -232 -1097 -325 -34 -32 -52 -83 -43 -123
4 -17 27 -57 51 -89 l44 -59 -2 -288 -3 -288 -74 -41 c-99 -55 -116 -79 -114
-158 2 -67 34 -232 60 -312 26 -81 62 -144 111 -197 l47 -50 -52 -97 c-85
-158 -147 -329 -213 -583 -66 -255 -84 -372 -84 -548 -1 -236 42 -377 148
-489 l56 -58 0 -810 0 -810 -45 -95 c-51 -108 -57 -165 -26 -233 58 -128 296
-217 841 -315 96 -17 210 -38 254 -46 60 -11 178 -14 513 -14 474 0 454 -2
828 70 432 83 674 164 753 254 36 41 62 119 55 162 -3 16 -25 71 -49 123 l-44
94 0 822 0 822 24 11 c50 23 117 144 148 269 28 115 30 368 4 513 -47 264
-197 719 -287 871 -22 36 -39 68 -39 71 0 4 21 30 46 60 91 107 160 303 171
488 5 89 4 97 -18 124 -12 16 -56 44 -96 63 l-73 34 0 295 0 295 45 55 c24 30
47 70 50 88 9 45 -15 97 -58 130 -113 87 -677 257 -957 290 -299 35 -726 47
-875 24z m640 -78 c292 -27 615 -95 860 -180 142 -49 304 -125 312 -146 3 -8
-16 -42 -45 -80 -28 -35 -52 -70 -54 -76 -3 -7 -52 3 -138 29 -74 22 -226 64
-338 93 l-202 53 -63 -28 c-259 -115 -367 -144 -553 -152 -214 -9 -380 28
-598 132 l-99 47 -121 -27 c-126 -28 -370 -97 -492 -138 l-71 -25 -44 65 c-24
36 -48 71 -54 79 -17 23 6 46 86 86 202 103 681 226 1054 271 69 9 458 6 560
-3z m-805 -455 c212 -86 348 -115 541 -115 197 0 357 37 552 128 l99 46 66
-12 c65 -11 289 -73 515 -143 l108 -33 -3 -237 c-2 -163 -7 -242 -15 -250 -18
-18 -35 25 -41 102 l-5 67 -116 36 c-228 71 -515 134 -713 157 l-108 13 0 38
0 38 -360 0 -360 0 0 -34 c0 -38 -3 -40 -85 -51 -179 -23 -487 -92 -702 -157
l-101 -31 -7 -61 c-9 -81 -31 -134 -48 -117 -9 9 -13 79 -15 250 l-3 238 53
15 c29 9 150 45 269 82 331 101 311 100 479 31z m823 -245 c19 -28 78 -46 237
-75 213 -39 323 -62 488 -105 214 -56 232 -67 232 -149 0 -60 14 -87 48 -94
40 -8 53 -46 40 -118 -5 -30 -11 -55 -12 -57 -2 -1 -22 36 -45 83 -117 237
-353 364 -602 326 -99 -16 -195 -64 -299 -151 -101 -84 -181 -126 -270 -140
-88 -13 -142 -12 -225 5 -95 20 -160 56 -263 142 -116 98 -184 131 -298 145
-104 13 -237 -4 -314 -41 -109 -51 -229 -179 -280 -298 -12 -29 -26 -51 -30
-48 -13 8 -32 92 -26 113 4 10 25 27 47 37 50 23 61 43 68 123 l6 64 75 24
c154 50 387 103 625 144 138 24 175 38 175 70 0 19 8 20 304 20 293 0 305 -1
319 -20z m-892 -289 c76 -29 96 -51 79 -90 -19 -46 -78 -101 -139 -130 -47
-22 -70 -26 -141 -26 -76 0 -92 4 -146 32 -68 35 -124 83 -124 106 0 33 99 96
193 122 72 21 205 14 278 -14z m1484 14 c62 -17 132 -51 180 -89 l29 -24 -27
-35 c-39 -52 -157 -108 -239 -114 -49 -4 -76 0 -121 17 -107 40 -186 121 -173
175 17 67 211 106 351 70z m-1292 -141 c65 -75 81 -102 67 -119 -7 -8 -18 -15
-24 -15 -21 0 -140 -87 -198 -144 -64 -63 -73 -94 -38 -138 26 -33 107 -67
200 -84 41 -7 116 -31 166 -53 50 -22 115 -46 144 -52 80 -17 202 -6 285 26
157 61 222 83 260 89 52 9 133 54 158 87 18 24 18 28 3 56 -22 44 -143 152
-220 197 -36 21 -66 41 -66 43 0 3 28 36 61 75 l62 69 72 -75 c100 -105 157
-131 285 -131 112 0 168 21 261 99 31 25 61 46 66 46 6 0 33 -42 59 -92 45
-88 48 -98 52 -186 3 -51 1 -163 -3 -250 l-7 -157 -57 -54 c-80 -75 -200 -153
-354 -226 -160 -76 -226 -98 -389 -130 -483 -94 -1005 -26 -1385 181 -91 49
-219 142 -271 196 -32 34 -32 35 -22 89 6 30 9 138 8 240 -3 203 3 234 72 342
l30 48 75 -51 c111 -75 191 -103 285 -98 103 4 170 39 258 134 37 40 68 73 70
73 1 1 17 -15 35 -35z m-1009 -93 c4 -5 19 -60 36 -123 16 -62 37 -138 46
-168 9 -30 18 -101 21 -157 l6 -103 -26 0 c-63 0 -123 124 -172 352 -35 164
-34 170 18 190 50 19 64 21 71 9z m1264 -18 c76 -22 236 -22 318 0 80 22 84
21 84 -6 0 -28 24 -51 105 -102 33 -21 89 -63 124 -94 61 -53 63 -56 40 -62
-13 -4 -42 -7 -64 -8 -70 -2 -156 -30 -199 -65 -23 -18 -55 -40 -73 -49 -37
-20 -143 -37 -228 -37 -55 0 -68 4 -135 46 -118 73 -171 94 -260 103 -45 5
-84 12 -88 16 -12 12 103 108 185 154 90 51 103 64 103 104 0 22 4 28 15 23 9
-3 41 -13 73 -23z m1651 6 c28 -12 51 -27 51 -33 0 -6 -6 -47 -14 -91 -47
-266 -135 -454 -199 -429 -43 16 -33 100 43 364 27 96 50 183 50 192 0 23 6
23 69 -3z m-2619 -794 c95 -73 299 -178 425 -219 44 -14 129 -37 189 -50 59
-14 110 -27 112 -29 2 -2 -47 -23 -109 -46 -135 -50 -262 -119 -329 -180 l-48
-43 -33 25 c-63 48 -183 174 -221 232 -55 83 -91 174 -115 292 -29 139 -28
142 12 109 17 -14 70 -55 117 -91z m2367 -55 c-14 -52 -40 -130 -58 -173 l-33
-77 -380 0 c-209 0 -377 2 -374 5 3 3 57 19 119 36 268 70 467 165 660 313
l84 66 3 -38 c1 -20 -8 -80 -21 -132z m192 -65 c103 -262 190 -563 211 -735 5
-46 10 -165 10 -262 l0 -178 -39 -78 c-42 -83 -99 -144 -158 -168 -29 -12
-201 -44 -240 -44 -10 0 -13 131 -13 622 l0 622 36 83 c30 71 59 170 89 308
l7 30 18 -25 c11 -14 46 -92 79 -175z m-2740 47 c55 -199 151 -352 300 -475
l70 -59 -55 -80 c-65 -95 -107 -177 -158 -305 l-36 -93 0 -250 0 -250 -24 0
c-43 0 -200 30 -245 46 -147 55 -209 210 -198 498 9 240 55 480 144 741 53
155 149 363 163 349 5 -5 23 -60 39 -122z m1581 -247 c0 -20 -37 -38 -66 -31
-28 7 -23 23 10 36 33 13 56 11 56 -5z m-279 -60 c46 -8 133 -31 194 -49 60
-19 115 -32 122 -29 7 3 13 16 13 29 l0 24 400 0 400 0 0 -628 0 -629 -197 -6
c-108 -4 -276 -7 -375 -7 l-178 0 0 -24 c0 -27 47 -71 245 -227 231 -183 332
-295 410 -452 71 -144 88 -230 82 -406 -3 -115 -10 -167 -31 -245 -78 -289
-239 -484 -500 -607 -146 -68 -226 -84 -421 -83 -155 1 -178 3 -255 27 -163
51 -209 61 -225 47 -8 -7 -15 -23 -15 -36 l0 -24 -390 0 -390 0 0 639 0 638
366 5 c242 4 369 9 376 16 20 20 -16 55 -214 214 -308 248 -418 378 -487 581
-68 197 -46 487 52 699 179 388 600 608 1018 533z m1374 -1286 c22 -6 52 -17
68 -25 l27 -15 0 -113 c0 -62 -3 -154 -6 -204 l-7 -92 -36 -10 c-20 -6 -113
-25 -206 -42 l-171 -32 -124 125 c-69 68 -181 167 -248 219 l-124 95 89 7 c48
4 194 10 324 14 l237 6 6 41 c4 22 9 43 11 47 5 8 97 -5 160 -21z m-2499 -51
c58 -117 142 -226 278 -365 l139 -143 -49 0 c-58 0 -340 46 -543 90 -79 16
-146 30 -148 30 -5 0 -3 209 4 313 l6 97 36 10 c48 13 81 17 173 19 l78 1 26
-52z m-172 -477 c77 -16 231 -43 341 -61 319 -49 385 -61 390 -70 11 -17 -117
-23 -390 -17 -196 4 -312 11 -387 23 l-108 18 0 68 c0 37 3 68 6 68 4 0 70
-13 148 -29z m2764 -42 c-3 -28 -11 -55 -18 -59 -22 -13 -313 -71 -320 -63 -4
5 -19 29 -34 55 l-27 47 23 6 c99 24 310 64 342 64 l39 1 -5 -51z m-2770 -150
l112 -21 0 -480 c0 -453 -1 -480 -17 -473 -10 4 -66 25 -124 46 l-106 40 -6
241 c-12 429 -6 668 17 668 6 0 62 -9 124 -21z m2772 -222 c0 -134 -3 -339 -7
-456 l-6 -211 -184 -60 c-177 -57 -253 -77 -253 -67 0 2 27 60 59 128 86 178
113 291 119 494 3 138 1 172 -17 247 -11 48 -18 94 -15 103 9 22 175 62 267
64 l37 1 0 -243z m54 -745 c8 -16 18 -51 21 -78 9 -70 -10 -121 -63 -161 -100
-76 -550 -184 -1037 -249 -155 -20 -656 -24 -825 -6 -134 15 -311 43 -329 52
-8 4 80 10 195 12 124 3 227 10 254 18 41 12 57 10 155 -13 144 -33 247 -41
371 -27 212 23 420 103 559 215 98 79 135 99 255 135 58 18 173 54 255 81 83
26 156 48 162 49 7 0 19 -13 27 -28z m-2848 -22 l121 -41 7 -52 c3 -29 6 -89
6 -134 l0 -83 -29 0 c-60 0 -249 79 -285 119 -28 31 -34 128 -11 186 21 57 32
58 191 5z"/>
<path d="M3742 6147 c-74 -95 -74 -139 -1 -233 l41 -54 575 0 575 0 38 30 c96
76 93 214 -7 283 l-39 27 -140 -16 c-234 -27 -722 -21 -954 12 l-46 6 -42 -55z
m127 -36 c20 -13 5 -41 -22 -41 -30 0 -62 24 -53 38 8 14 55 16 75 3z m1069
-8 c3 -12 -11 -20 -65 -37 -19 -6 -23 -4 -23 13 0 11 8 25 18 30 22 14 64 10
70 -6z m-932 -38 c-31 -72 -33 -74 -51 -31 -21 50 -14 66 30 66 l35 0 -14 -35z
m779 25 c8 -13 -4 -90 -13 -90 -13 0 -53 72 -48 86 6 16 52 19 61 4z m-134
-17 c24 -24 -24 -28 -298 -28 -272 0 -307 4 -288 35 10 16 569 10 586 -7z
m-763 -73 c19 -12 32 -28 32 -40 0 -17 -7 -20 -41 -20 -22 0 -50 5 -62 11 -23
12 -56 48 -57 62 0 16 96 6 128 -13z m1070 -2 c2 -11 -9 -25 -30 -38 -54 -33
-108 -22 -108 22 0 26 29 38 85 35 38 -1 51 -6 53 -19z m-265 -22 c9 -5 17
-12 17 -16 0 -17 -110 -22 -387 -18 -214 2 -285 6 -295 16 -29 29 15 33 332
29 173 -2 323 -7 333 -11z"/>
<path d="M4140 5464 c-311 -38 -535 -197 -673 -477 l-55 -114 -7 -204 -7 -204
31 -81 c69 -179 167 -285 521 -566 636 -506 610 -484 610 -522 0 -35 -35 -103
-59 -116 -11 -5 -35 -10 -54 -10 -37 0 -119 53 -263 171 l-72 59 -356 0 -356
0 0 -500 0 -500 88 0 c49 0 164 3 255 7 l166 6 7 46 c9 64 28 91 63 91 17 0
89 -30 163 -68 211 -108 357 -139 520 -108 142 27 251 73 376 159 101 69 164
142 217 250 109 221 133 499 60 694 -65 172 -154 261 -660 657 -372 292 -444
355 -456 397 -14 46 6 89 60 125 38 25 40 25 73 8 52 -27 116 -71 214 -151
l92 -73 114 0 c63 0 223 3 356 7 l242 6 0 489 0 488 -250 0 -249 0 -6 -37
c-22 -128 -64 -137 -221 -46 -88 51 -152 79 -224 98 -60 16 -202 26 -260 19z"/>
<path d="M932 7508 c-45 -58 -55 -131 -46 -347 l7 -166 131 -83 c72 -46 150
-100 173 -120 l41 -37 7 -2585 6 -2585 32 -54 c138 -231 742 -540 1392 -711
532 -140 1030 -190 1915 -190 341 0 364 1 570 30 464 65 723 118 1025 211 401
123 770 300 1060 509 130 94 167 130 219 215 l44 70 11 2505 c6 1378 14 2528
18 2555 8 49 9 51 88 101 44 29 118 76 163 105 46 30 89 63 95 74 8 14 11 85
10 222 l-1 202 -37 46 -37 45 -891 -2 -891 -3 -22 -38 c-30 -53 -36 -123 -28
-319 l7 -169 174 -114 173 -114 -1 -1903 c0 -2036 -7 -2609 -30 -2646 -85
-136 -739 -362 -1279 -442 -327 -49 -1007 -49 -1315 0 -385 61 -825 188 -1084
312 -76 36 -118 64 -157 103 l-54 54 0 2259 0 2260 43 35 c24 19 88 63 143 97
54 35 111 74 125 87 43 40 53 95 46 261 -8 165 -15 199 -52 248 l-26 34 -878
0 c-691 0 -881 -3 -889 -12z"/>
</g>
</svg>
